<?xml version="1.0" encoding="UTF-8"?>
<svg version="1.1" xmlns="http://www.w3.org/2000/svg" width="512" height="512">
<path d="M0 0 C5.61 0 11.22 0 17 0 C17 11.88 17 23.76 17 36 C19.31 36.33 21.62 36.66 24 37 C27.05944404 37.86962106 29.99819615 38.93782325 33 40 C33 35.05 33 30.1 33 25 C38.61 25 44.22 25 50 25 C50.33 31.6 50.66 38.2 51 45 C54.74150391 46.051875 54.74150391 46.051875 58.55859375 47.125 C61.00300271 47.83081214 63.44477961 48.54511706 65.88647461 49.26025391 C67.56848712 49.74800373 69.25304887 50.22705848 70.94018555 50.69677734 C82.21619092 53.84403573 91.45168701 56.75112617 98 67.1875 C100.03240741 72.90364583 100 76.6125749 100 83 C115.84 83 131.68 83 148 83 C148 76.4 148 69.8 148 63 C153.4 52.2 153.4 52.2 160 50 C161.62719482 49.91856145 163.25751719 49.8924698 164.88671875 49.90234375 C165.82451172 49.90556641 166.76230469 49.90878906 167.72851562 49.91210938 C169.19321289 49.92467773 169.19321289 49.92467773 170.6875 49.9375 C172.16959961 49.94426758 172.16959961 49.94426758 173.68164062 49.95117188 C176.12111958 49.9629568 178.56056741 49.98089217 181 50 C181 44.39 181 38.78 181 33 C186.94 33 192.88 33 199 33 C199 38.61 199 44.22 199 50 C203.95 50 208.9 50 214 50 C214 39.11 214 28.22 214 17 C219.94 17 225.88 17 232 17 C232 27.89 232 38.78 232 50 C236.95 50 241.9 50 247 50 C247 44.39 247 38.78 247 33 C252.94 33 258.88 33 265 33 C265 38.61 265 44.22 265 50 C267.15208984 49.93039063 267.15208984 49.93039063 269.34765625 49.859375 C271.25258325 49.82183949 273.15753289 49.78544125 275.0625 49.75 C276.00544922 49.71648437 276.94839844 49.68296875 277.91992188 49.6484375 C284.20959361 49.56077657 287.89226858 50.25163847 293 54 C300.55934469 63.74757605 298 68.19713419 298 83 C313.84 83 329.68 83 346 83 C346.33 78.71 346.66 74.42 347 70 C350.40893674 62.88133798 355.48393516 57.01430154 363.09936523 54.30908203 C364.58035224 53.85715791 366.06716101 53.4239691 367.55859375 53.0078125 C368.34774673 52.77214569 369.13689972 52.53647888 369.94996643 52.29367065 C372.44119632 51.55386219 374.93880035 50.83912098 377.4375 50.125 C379.14045959 49.62404376 380.84293964 49.12145431 382.54492188 48.6171875 C386.69075073 47.3893921 390.84431095 46.19585112 395 45 C395.33 38.4 395.66 31.8 396 25 C401.61 25 407.22 25 413 25 C413 29.95 413 34.9 413 40 C414.8975 39.34 416.795 38.68 418.75 38 C422.50847849 36.69270314 424.98012591 36 429 36 C429 24.12 429 12.24 429 0 C434.61 0 440.22 0 446 0 C446.33 11.22 446.66 22.44 447 34 C450.96 35.98 450.96 35.98 455 38 C457.0234375 39.96484375 457.0234375 39.96484375 458.375 41.9375 C459.06722656 42.91009766 459.06722656 42.91009766 459.7734375 43.90234375 C463.08561138 49.56679398 463.27796468 54.22806563 463.22705078 60.65551758 C463.22734283 61.6218512 463.22763489 62.58818481 463.22793579 63.58380127 C463.22654492 66.7708033 463.21099498 69.95757017 463.1953125 73.14453125 C463.19158151 75.35698824 463.18873494 77.56944689 463.18673706 79.78190613 C463.17910739 85.59997127 463.15946452 91.41793628 463.1373291 97.23596191 C463.11685639 103.17487229 463.10773229 109.11379887 463.09765625 115.05273438 C463.07621808 126.70186687 463.04209008 138.3509251 463 150 C463.78101074 150.13575439 464.56202148 150.27150879 465.36669922 150.41137695 C470.82990697 151.63257053 474.70894672 156.30549257 478 160.625 C480.38536228 168.67559769 479.96249927 175.89015306 476.375 183.5 C468.06215628 198.5775465 457.98491674 212.76237932 447 226 C446.55011719 226.55139648 446.10023438 227.10279297 445.63671875 227.67089844 C434.1234169 241.75442331 421.37529052 254.83492183 407 266 C405.86196927 266.93563156 404.7267294 267.87466423 403.59375 268.81640625 C389.77714283 280.23292821 374.78115993 289.55061955 359 298 C358.38930664 298.33064453 357.77861328 298.66128906 357.14941406 299.00195312 C330.25125544 313.44912214 300.97045123 322.64544027 271 328 C269.70425049 328.2477417 269.70425049 328.2477417 268.38232422 328.50048828 C238.75991819 334.00171099 204.56851473 333.61060756 175 328 C174.0713916 327.83902832 173.1427832 327.67805664 172.18603516 327.51220703 C147.56691344 323.22148115 123.59239114 315.67239025 101 305 C100.28070313 304.6611377 99.56140625 304.32227539 98.8203125 303.97314453 C94.15718636 301.75317579 89.56231975 299.41985161 85 297 C84.34725098 296.65501465 83.69450195 296.3100293 83.02197266 295.95458984 C67.23416397 287.53519516 52.8271287 277.32390747 39 266 C38.44135254 265.5457666 37.88270508 265.0915332 37.30712891 264.62353516 C23.22532915 253.10722905 10.19069526 240.35279552 -1 226 C-1.67417969 225.21625 -2.34835938 224.4325 -3.04296875 223.625 C-16.87523195 207.49995729 -34.41348715 185.99059813 -33 164 C-31.30447828 158.2776142 -26.90624675 154.26184537 -22 151 C-20.34126188 150.62922143 -18.67456461 150.29107091 -17 150 C-17.01110306 148.78192657 -17.02220612 147.56385315 -17.03364563 146.30886841 C-17.13520523 134.80404099 -17.2100536 123.29930507 -17.25906086 111.79413033 C-17.28510349 105.87981542 -17.32040466 99.96586372 -17.37719727 94.05175781 C-17.43170637 88.33939949 -17.46146063 82.62738953 -17.47438622 76.91479111 C-17.48359214 74.74037064 -17.5015691 72.56596824 -17.52865028 70.39169693 C-17.5651912 67.33510061 -17.56993482 64.27992571 -17.56762695 61.22314453 C-17.58560333 60.33337418 -17.60357971 59.44360382 -17.62210083 58.52687073 C-17.56782096 51.83994827 -15.76858379 46.55347773 -12 41 C-8.61018499 37.81225157 -5.4290034 35.47633447 -1 34 C-0.67 22.78 -0.34 11.56 0 0 Z M1 54 C0.71914409 57.08858346 0.6214682 59.9732112 0.65942383 63.0612793 C0.65898575 63.98830658 0.65854767 64.91533386 0.65809631 65.87045288 C0.66018852 68.93858812 0.6835401 72.00617882 0.70703125 75.07421875 C0.71262566 77.1998515 0.71689649 79.32548811 0.71989441 81.4511261 C0.73135532 87.0489874 0.76083335 92.64661563 0.79400635 98.24438477 C0.83007225 104.95907016 0.84386243 111.67383344 0.86136627 118.38858795 C0.8904698 128.59255413 0.94794866 138.79600878 1 149 C16.84 149 32.68 149 49 149 C49.02578125 145.266875 49.0515625 141.53375 49.078125 137.6875 C49.11657916 134.05672793 49.1617288 130.42609624 49.20751953 126.79541016 C49.23567877 124.27952825 49.25691828 121.7635587 49.27099609 119.24755859 C49.29249456 115.62291764 49.3391837 111.99932483 49.390625 108.375 C49.39185364 107.25697998 49.39308228 106.13895996 49.39434814 104.98706055 C49.51360633 98.57318725 50.08979526 93.2717001 54 88 C59.63529988 83.4917601 64.89234034 83.35594225 71.9375 83.25 C72.90751953 83.22035156 73.87753906 83.19070313 74.87695312 83.16015625 C77.25138298 83.08997606 79.62486086 83.03702676 82 83 C82.0928125 81.1128125 82.0928125 81.1128125 82.1875 79.1875 C82.22230469 78.47980469 82.25710937 77.77210938 82.29296875 77.04296875 C81.8999985 74.30265617 81.16522613 73.72577709 79 72 C75.92588851 70.7622308 75.92588851 70.7622308 72.31298828 69.73168945 C71.63783173 69.52642639 70.96267517 69.32116333 70.26705933 69.10968018 C68.03756398 68.43465487 65.80418303 67.77367022 63.5703125 67.11328125 C62.01696798 66.64738703 60.46381907 66.18084014 58.91085815 65.71366882 C55.65606459 64.73684237 52.39936852 63.76672891 49.14111328 62.80151367 C44.9692293 61.56525684 40.80189645 60.31441504 36.63582039 59.05874348 C33.42888053 58.09356888 30.21993322 57.13521979 27.01031113 56.17900658 C25.47319541 55.7203779 23.93664107 55.25986329 22.4006691 54.79741859 C20.25099564 54.15152967 18.09885338 53.5146463 15.94580078 52.88012695 C14.72240997 52.51611282 13.49901917 52.15209869 12.23855591 51.77705383 C5.82802672 50.21116768 5.82802672 50.21116768 1 54 Z M430.05419922 52.88012695 C429.03620743 53.18013611 429.03620743 53.18013611 427.99765015 53.48620605 C425.76450184 54.14652338 423.5345401 54.81692557 421.3046875 55.48828125 C419.74969958 55.95224245 418.19461385 56.41587597 416.63943481 56.87919617 C413.38500218 57.85061295 410.13219502 58.82726064 406.88037109 59.80737305 C402.71290389 61.062806 398.54112426 62.30317294 394.36793327 63.53942585 C391.15745722 64.49264874 387.94970627 65.45478851 384.7426796 66.41954613 C383.20538494 66.88062652 381.66718408 67.33869666 380.12807846 67.79369545 C377.97816598 68.43050898 375.83229395 69.0794745 373.68701172 69.73168945 C371.85431229 70.28129082 371.85431229 70.28129082 369.98458862 70.84199524 C367.1900686 71.92625438 365.76294462 72.61936226 364 75 C363.6393369 77.05363606 363.6393369 77.05363606 363.8125 79.1875 C363.874375 80.445625 363.93625 81.70375 364 83 C364.59949463 83.0093457 365.19898926 83.01869141 365.81665039 83.02832031 C368.56606267 83.08242276 371.31384552 83.16598797 374.0625 83.25 C375.00544922 83.26417969 375.94839844 83.27835938 376.91992188 83.29296875 C383.08827577 83.50789397 387.11789823 84.09431858 392 88 C396.63052535 94.24282936 396.60113209 100.87422241 396.609375 108.375 C396.62591125 109.5400708 396.64244751 110.7051416 396.65948486 111.90551758 C396.70782552 115.60373277 396.72930593 119.30153712 396.75 123 C396.77817116 125.5169476 396.80810018 128.03387617 396.83984375 130.55078125 C396.91686985 136.70070733 396.95752314 142.84935136 397 149 C412.84 149 428.68 149 445 149 C445.08721999 132.18849172 445.08721999 132.18849172 445.14648438 115.37695312 C445.16443607 108.52279721 445.18570042 101.66876122 445.22631836 94.81469727 C445.2588519 89.29042558 445.27684038 83.76628245 445.28463173 78.24192238 C445.29018604 76.1315286 445.30103187 74.02114207 445.31719017 71.91080284 C445.3388845 68.9608055 445.34197027 66.01134323 445.34057617 63.0612793 C445.351362 62.18374496 445.36214783 61.30621063 445.3732605 60.40208435 C445.49698528 56.03573455 445.49698528 56.03573455 443.61828899 52.27110481 C439.64656463 49.15146551 434.41492757 51.58261292 430.05419922 52.88012695 Z M166 67 C166 94.06 166 121.12 166 149 C203.62 149 241.24 149 280 149 C280 121.94 280 94.88 280 67 C242.38 67 204.76 67 166 67 Z M67 100 C67 116.17 67 132.34 67 149 C93.73 149 120.46 149 148 149 C148 132.83 148 116.66 148 100 C121.27 100 94.54 100 67 100 Z M298 100 C298 116.17 298 132.34 298 149 C324.73 149 351.46 149 379 149 C379 132.83 379 116.66 379 100 C352.27 100 325.54 100 298 100 Z M-16 169 C-15.4430282 174.01274624 -13.11146529 177.7022741 -10.5625 181.9375 C-10.11366455 182.68894287 -9.6648291 183.44038574 -9.20239258 184.21459961 C18.22838704 229.52689355 59.29875651 265.38931883 107 288 C107.68368652 288.3285498 108.36737305 288.65709961 109.07177734 288.99560547 C136.03770712 302.14829028 136.03770712 302.14829028 165 307 C164.17713583 303.29711123 163.66273341 301.46391339 160.5 299.25 C157.59880875 298.21386027 155.1937676 297.66906386 152.1875 297.1875 C145.57177041 295.94206898 140.52777829 293.21287708 136.328125 287.875 C132.2709412 280.9458771 132.00744221 273.8468248 133 266 C134.67001575 259.81111811 138.65000568 255.4155331 144 252 C151.31466688 247.91039209 158.82171488 248.59179757 167.015625 248.6484375 C173.56939001 248.63826289 173.56939001 248.63826289 179.23828125 245.65234375 C181.39947706 242.39857001 181.7334583 240.83028226 181 237 C178.76793569 234.15219381 177.45007001 233.15002334 174 232 C172.54588719 231.90812639 171.08794605 231.87105908 169.63093567 231.86869812 C168.73805847 231.86468994 167.84518127 231.86068176 166.92524719 231.85655212 C165.94807236 231.85708084 164.97089752 231.85760956 163.96411133 231.8581543 C162.93289154 231.85467987 161.90167175 231.85120544 160.83920288 231.84762573 C158.59659681 231.84026712 156.35398345 231.8349223 154.11136818 231.83133507 C150.55934867 231.82417301 147.00746758 231.80850754 143.45549011 231.78999329 C133.35503047 231.73751656 123.25464572 231.68955902 113.15405273 231.67407227 C106.97776621 231.663981 100.80182651 231.63462496 94.62567711 231.59275246 C92.27384758 231.5804521 89.92196905 231.57531943 87.57010841 231.57755089 C84.27398418 231.57990834 80.97885141 231.55770148 77.68286133 231.5300293 C76.23228081 231.53993141 76.23228081 231.53993141 74.75239563 231.55003357 C67.72550958 231.45343924 62.47488061 229.86728852 57.01171875 225.359375 C51.73298765 218.94392599 49.3737535 212.90465357 49.64453125 204.5234375 C50.50884365 198.38776926 53.5086102 192.25500086 58 188 C65.66491168 182.90290558 72.46142808 182.30976097 81.48828125 182.43359375 C82.74964401 182.42795914 84.01100677 182.42232452 85.31059265 182.41651917 C89.3116449 182.40014636 93.3115398 182.41537332 97.3125 182.4375 C101.33119735 182.45577172 105.34922398 182.46320723 109.3679657 182.44776917 C111.86097947 182.43848838 114.35414655 182.44765497 116.84700012 182.47740173 C117.97554916 182.47382156 119.10409821 182.47024139 120.2668457 182.46655273 C121.25594437 182.47275131 122.24504303 182.47894989 123.26411438 182.4853363 C126.79283015 181.85935477 128.46209916 180.48512343 131 178 C131.96070434 175.11788698 132.10581883 173.30149956 132.0625 170.3125 C132.05347656 169.50425781 132.04445312 168.69601562 132.03515625 167.86328125 C132.02355469 167.24839844 132.01195312 166.63351562 132 166 C113.29384012 165.9299484 94.58770683 165.87703072 75.88144302 165.84456348 C67.19598254 165.82908833 58.51060352 165.80798646 49.82519531 165.77368164 C42.2558295 165.74379909 34.68652268 165.72442971 27.11709952 165.71773452 C23.10836979 165.7138203 19.09980882 165.704608 15.09113312 165.68280983 C11.31877201 165.66246268 7.54664935 165.65616256 3.77423859 165.66067696 C2.38910629 165.65985096 1.0039661 165.65387459 -0.38111877 165.64238358 C-2.27141566 165.62746914 -4.16184019 165.63283144 -6.05218506 165.63923645 C-7.1104034 165.63647107 -8.16862175 165.63370569 -9.25890732 165.63085651 C-12.34791522 166.04685381 -13.71843263 166.92975099 -16 169 Z M149 166 C148.67 170.62 148.34 175.24 148 180 C145.69422303 187.28625522 142.37034824 191.71751264 136 196 C132.26337793 197.76495456 129.30643052 198.25370487 125.1875 198.27124023 C124.0428125 198.28142685 122.898125 198.29161346 121.71875 198.30210876 C120.4915625 198.30424881 119.264375 198.30638885 118 198.30859375 C115.39583102 198.33374596 112.79166441 198.3591441 110.1875 198.38476562 C106.08596822 198.41556349 101.98441611 198.43778803 97.8828125 198.45629883 C93.92169681 198.47524757 89.96094646 198.51734962 86 198.55859375 C84.7728125 198.55870956 83.545625 198.55882538 82.28125 198.5589447 C80.56421875 198.57895287 80.56421875 198.57895287 78.8125 198.59936523 C77.80832031 198.60443588 76.80414063 198.60950653 75.76953125 198.61473083 C72.52857016 199.06558055 70.63202375 200.08516839 68 202 C66.55569145 204.88861709 66.62311494 206.79647701 67 210 C69.01816126 212.85349438 70.63145996 214.70913996 74.14632607 215.45616531 C76.86355099 215.6358435 79.53992921 215.64926198 82.26293945 215.61181641 C83.29445129 215.61748123 84.32596313 215.62314606 85.38873291 215.62898254 C88.79728562 215.64248211 92.20477495 215.62153696 95.61328125 215.6015625 C97.98594389 215.60706266 100.35860178 215.61518725 102.73124695 215.62582397 C108.98032451 215.64873004 115.2290526 215.64448333 121.47814941 215.63201904 C131.46958453 215.61372903 141.46081366 215.62370911 151.45219994 215.65787888 C154.93763731 215.66397394 158.42263262 215.65073133 161.90803528 215.63589478 C164.05498365 215.63884395 166.20193121 215.64249933 168.34887695 215.64697266 C169.31278854 215.63768234 170.27670013 215.62839203 171.26982117 215.61882019 C178.31120323 215.66019487 183.57999454 216.93208972 189.6875 220.625 C195.14198073 226.22689913 197.65647698 232.53420077 198.25 240.25 C197.7842125 247.2368125 195.79960065 253.29000674 190.84619141 258.38500977 C184.11363577 264.2744379 176.30987086 264.55722914 167.75 264.5625 C165.64052789 264.57146014 163.53106282 264.59313485 161.421875 264.62890625 C160.49987305 264.62963135 159.57787109 264.63035645 158.62792969 264.63110352 C155.43922833 265.07871851 153.59181728 266.11315481 151 268 C148.71558382 270.80666091 148.71558382 270.80666091 149.0625 273.9375 C150.29859711 277.97541724 151.30467938 278.93062045 155 281 C156.76155887 281.36113335 158.53450781 281.66870506 160.3125 281.9375 C167.06493528 282.97493615 171.56834692 285.50262657 176.3125 290.375 C179.66951168 295.59701816 181.0931873 299.59280478 181.58203125 305.7421875 C181.66300049 306.72815918 181.74396973 307.71413086 181.82739258 308.72998047 C181.88435303 309.47908691 181.94131348 310.22819336 182 311 C209.63179318 314.98270671 236.36820682 314.98270671 264 311 C263.91253716 309.56138706 263.80434652 308.12402492 263.6875 306.6875 C263.60048828 305.48673828 263.60048828 305.48673828 263.51171875 304.26171875 C262.90508184 301.58047624 262.16909163 300.65114273 260 299 C256.85489204 298.16437566 256.85489204 298.16437566 253.3125 297.625 C246.37852615 296.2310568 240.94811453 294.71847612 236.4453125 289.0390625 C231.78830234 281.96145949 231.26108608 275.39195098 232 267 C233.67235193 260.36096434 237.19032305 255.6105337 243 252 C248.67285754 249.09129827 253.15314618 248.58282226 259.4765625 248.62890625 C261.29948115 248.61153538 263.12239778 248.59395089 264.9453125 248.57617188 C267.79365633 248.56608009 270.64187335 248.56251006 273.49023438 248.56420898 C276.25688962 248.5606388 279.0225793 248.53331151 281.7890625 248.50390625 C282.63812164 248.51208878 283.48718079 248.5202713 284.36196899 248.52870178 C288.39353345 248.47799364 290.50359224 248.30407488 294.01513672 246.15307617 C296.54681786 243.40684051 296.90951861 241.41445801 297.5 237.75 C298.92995999 230.59216655 301.14620678 225.7786934 306.375 220.6875 C314.05124841 215.75276888 320.19204216 215.5952886 329.1953125 215.6640625 C331.79297128 215.65155696 334.39062755 215.63852016 336.98828125 215.625 C341.06792211 215.61794246 345.14743676 215.62445774 349.22705078 215.63964844 C353.17502758 215.65267165 357.12239221 215.62657502 361.0703125 215.6015625 C362.29122589 215.61490631 363.51213928 215.62825012 364.77005005 215.64199829 C371.5724736 215.81399834 371.5724736 215.81399834 377.27294922 212.65380859 C379.39218206 209.39736797 379.72986217 207.81150244 379 204 C377.1329009 201.69724444 375.64352259 200.32176129 373 199 C370.17434282 198.8981119 367.37247741 198.85635656 364.54638672 198.8581543 C363.67137009 198.85467987 362.79635345 198.85120544 361.89482117 198.84762573 C359.98996494 198.84026191 358.08510009 198.83491987 356.180233 198.83133507 C353.16176127 198.82417623 350.14345274 198.80851238 347.12503052 198.78999329 C338.54105925 198.73750793 329.95717502 198.68957787 321.37304688 198.67407227 C316.1250764 198.66397049 310.87751295 198.63458567 305.62970352 198.59275246 C303.63234669 198.58046425 301.63493229 198.57531721 299.63753891 198.57755089 C296.83458075 198.57991324 294.03278157 198.55766508 291.22998047 198.5300293 C290.41096756 198.53663071 289.59195465 198.54323212 288.74812317 198.55003357 C282.03464768 198.44186374 276.86541104 196.46605061 271.7578125 192.0703125 C271.21898437 191.42835938 270.68015625 190.78640625 270.125 190.125 C269.29355469 189.16980469 269.29355469 189.16980469 268.4453125 188.1953125 C263.85401374 181.22150196 264.60020966 174.40293528 264 166 C226.05 166 188.1 166 149 166 Z M281 166 C280.96441571 167.43862187 280.93903852 168.87749862 280.91796875 170.31640625 C280.9027417 171.11763916 280.88751465 171.91887207 280.87182617 172.74438477 C281.04789144 175.8427982 282.05257234 177.61981064 284 180 C287.86745545 182.57830363 291.05283679 182.27046717 295.53540039 182.23950195 C296.40735046 182.24151611 297.27930054 182.24353027 298.17767334 182.24560547 C300.07323451 182.2491532 301.96880751 182.24838114 303.86436653 182.24382973 C306.87093339 182.23823796 309.87711419 182.24739495 312.88365173 182.2610321 C321.43278632 182.29815336 329.98179297 182.3167391 338.53100586 182.30541992 C343.76071383 182.29954537 348.98988249 182.31794901 354.21948051 182.35130882 C356.20682708 182.35923156 358.19423292 182.35802856 360.18156624 182.34728432 C380.88344572 182.24024469 380.88344572 182.24024469 388 188 C393.29621868 193.56873379 395.98969814 199.0198814 396.375 206.75 C396.19693934 213.32835203 394.53001432 219.08779202 390.1640625 224.11328125 C384.72793365 229.14326254 379.64378714 231.2387579 372.16577148 231.27124023 C371.04118027 231.28142685 369.91658905 231.29161346 368.75791931 231.30210876 C367.55776688 231.30424881 366.35761444 231.30638885 365.12109375 231.30859375 C362.56575282 231.33374248 360.01041433 231.35914067 357.45507812 231.38476562 C353.43693364 231.41355983 349.41883687 231.43780756 345.40063477 231.45629883 C341.51557167 231.47791815 337.63099066 231.51734252 333.74609375 231.55859375 C332.54391708 231.55870956 331.34174042 231.55882538 330.10313416 231.5589447 C328.42097557 231.57895287 328.42097557 231.57895287 326.70483398 231.59936523 C325.72143539 231.60443588 324.7380368 231.60950653 323.72483826 231.61473083 C320.51356619 232.06877764 318.62191782 233.12262425 316 235 C314.00417291 237.938301 313.67225002 240.70393731 313.25 244.1875 C312.05679731 250.9580213 309.58613678 256.05822815 304.20239258 260.47460938 C295.29639161 265.70028363 285.17622422 264.67696596 275.1875 264.625 C272.38138063 264.62114379 269.57589944 264.62462242 266.76985168 264.64559937 C265.03363344 264.65763068 263.29723448 264.65511492 261.56108093 264.63589478 C256.86970902 264.65765363 253.8239968 264.97357571 250 268 C248.26681336 270.36343632 247.98919056 271.56762249 248.0625 274.5 C249.40294623 278.07452328 250.67417552 279.0710218 254 281 C255.76101469 281.36377768 257.53414489 281.67111671 259.3125 281.9375 C266.24005801 283.00973307 271.17543723 285.732461 275.875 290.9375 C279.417767 296.04325245 280.26743826 300.89531881 281 307 C288.44250634 306.43947651 295.13788163 304.72286778 302.25 302.5 C303.95712158 301.96922852 303.95712158 301.96922852 305.69873047 301.42773438 C353.0764015 286.31663249 397.97005395 257.21754926 430 219 C430.42410156 218.49500977 430.84820312 217.99001953 431.28515625 217.46972656 C451.25757508 195.46689257 451.25757508 195.46689257 461.88671875 169.7421875 C460.99851309 167.64517824 460.99851309 167.64517824 458 166 C454.73461981 165.70165649 454.73461981 165.70165649 450.91963196 165.75949097 C449.83160389 165.75692769 449.83160389 165.75692769 448.72159547 165.75431263 C446.28475629 165.75101156 443.84819088 165.76203146 441.41137695 165.77294922 C439.66711432 165.7735132 437.92285122 165.77319703 436.17858887 165.77206421 C431.4371408 165.77148918 426.69579344 165.78326771 421.95436883 165.79721212 C417.00158206 165.80969454 412.04879311 165.81088802 407.09599304 165.81326294 C397.71438089 165.81948504 388.33281522 165.83590572 378.95122355 165.85596192 C368.27179899 165.87829823 357.59237223 165.88930864 346.91293013 165.89935279 C324.94192745 165.92027131 302.97096665 165.95546146 281 166 Z " fill="#E68657" transform="translate(33,181)"/>
<path d="M0 0 C2.46940706 1.92479463 4.82044868 3.92295635 7.1484375 6.015625 C7.75945312 6.53382812 8.37046875 7.05203125 9 7.5859375 C22.92759891 20.24160957 30.12087501 39.65790256 31.43359375 58 C32.29591626 83.30300635 21.54316527 102.05707836 6.1484375 121.015625 C5.62266113 121.66370117 5.09688477 122.31177734 4.55517578 122.97949219 C2.36815933 125.67292709 0.17934791 128.36487184 -2.01391602 131.05322266 C-5.50628091 135.33871969 -8.94929635 139.65833677 -12.3515625 144.015625 C-16.82530882 149.74515976 -21.38474882 155.39994472 -25.99584961 161.01953125 C-28.72005945 164.34934731 -31.39322613 167.70294994 -33.98046875 171.140625 C-34.47546875 171.79289063 -34.97046875 172.44515625 -35.48046875 173.1171875 C-36.41439253 174.3539367 -37.33815683 175.59844469 -38.25 176.8515625 C-39.51171875 178.515625 -39.51171875 178.515625 -41.8515625 181.015625 C-45.8515625 181.015625 -45.8515625 181.015625 -47.41625977 179.67724609 C-47.91182373 179.05414551 -48.4073877 178.43104492 -48.91796875 177.7890625 C-49.48008057 177.09417725 -50.04219238 176.39929199 -50.62133789 175.68334961 C-51.50873657 174.54845093 -51.50873657 174.54845093 -52.4140625 173.390625 C-53.03466553 172.61662354 -53.65526855 171.84262207 -54.29467773 171.04516602 C-56.16008304 168.71203159 -58.00811101 166.36612717 -59.8515625 164.015625 C-60.82019665 162.78766902 -61.78893621 161.55979618 -62.7578125 160.33203125 C-64.08747262 158.64307537 -65.41466317 156.95235478 -66.73657227 155.25732422 C-70.21761957 150.79594182 -73.77351265 146.39945692 -77.3515625 142.015625 C-82.7776639 135.35975587 -88.13213582 128.65558847 -93.39648438 121.87109375 C-94.97205041 119.8619827 -96.57506917 117.87659349 -98.1796875 115.890625 C-112.99111562 97.35417969 -120.40426887 78.12431309 -118.8515625 54.015625 C-116.37344042 34.26869947 -107.29468351 15.82000544 -91.8515625 3.015625 C-64.96084082 -17.41935225 -28.11464509 -19.56471193 0 0 Z M-87.8515625 24.015625 C-99.01842433 38.72522037 -102.35799799 53.86841799 -100.8515625 72.015625 C-99.98812053 76.60353557 -98.65496015 80.71752728 -96.8515625 85.015625 C-96.54734375 85.82386719 -96.243125 86.63210937 -95.9296875 87.46484375 C-92.40356852 95.66985138 -86.18808364 102.23656467 -80.51074219 109.01367188 C-78.06301914 111.9670752 -75.70504841 114.98698363 -73.3515625 118.015625 C-69.39363743 123.08905104 -65.36061736 128.095507 -61.2890625 133.078125 C-55.67192875 139.95454486 -50.21743365 146.94188064 -44.8515625 154.015625 C-40.90077128 152.69869459 -39.38911811 150.16178934 -36.9765625 146.953125 C-35.99092817 145.66953913 -35.00389242 144.38702844 -34.015625 143.10546875 C-33.4990332 142.43370605 -32.98244141 141.76194336 -32.45019531 141.06982422 C-29.80656884 137.67283688 -27.07764856 134.34651707 -24.3515625 131.015625 C-18.42843344 123.75048936 -12.58901788 116.4282354 -6.8515625 109.015625 C-6.3364209 108.35498047 -5.8212793 107.69433594 -5.29052734 107.01367188 C3.63637619 95.74779778 3.63637619 95.74779778 10.1484375 83.015625 C10.46296875 82.24089844 10.7775 81.46617188 11.1015625 80.66796875 C16.05012111 66.11470775 13.93960169 49.93049592 7.8984375 36.16796875 C0.26640049 20.75212126 -12.0513299 11.87235822 -27.80859375 5.9609375 C-49.88199623 -0.8962684 -72.60897405 7.56405986 -87.8515625 24.015625 Z " fill="#E68657" transform="translate(299.8515625,12.984375)"/>
<path d="M0 0 C15.84204001 12.50342827 26.49815092 28.85812085 29.9609375 48.86328125 C31.68288102 75.28858278 26.50550615 95.59493358 9.49511719 116.01855469 C7.34502177 118.60386992 5.22979145 121.21697013 3.11181641 123.82861328 C2.0090418 125.18775608 0.90454105 126.5455001 -0.20166016 127.90185547 C-3.69453903 132.18655003 -7.13698322 136.50623234 -10.5390625 140.86328125 C-14.48101326 145.9117445 -18.48937963 150.90084294 -22.5390625 155.86328125 C-29.51412064 164.41254965 -36.45916364 173.00407102 -43.0390625 181.86328125 C-46.16121678 180.50600614 -47.97069369 179.08046162 -50.10546875 176.44140625 C-50.66758057 175.75296631 -51.22969238 175.06452637 -51.80883789 174.35522461 C-52.69623657 173.24546265 -52.69623657 173.24546265 -53.6015625 172.11328125 C-54.22216553 171.34830322 -54.84276855 170.5833252 -55.48217773 169.79516602 C-59.68012613 164.60502429 -63.81970679 159.36886939 -67.92407227 154.10449219 C-71.40565265 149.64369747 -74.96095174 145.24689957 -78.5390625 140.86328125 C-83.08631449 135.28873421 -87.59496584 129.68816241 -92.0090332 124.00732422 C-94.2585958 121.11321251 -96.53443572 118.25292545 -98.88671875 115.44140625 C-108.08492474 104.33779015 -115.25309646 92.18452818 -118.0390625 77.86328125 C-118.30976563 76.53296875 -118.30976563 76.53296875 -118.5859375 75.17578125 C-121.34565302 55.0013092 -118.15274343 33.75410619 -105.74316406 17.12695312 C-102.74164944 13.4557865 -99.4483885 10.15436473 -96.0390625 6.86328125 C-95.33265625 6.1259375 -94.62625 5.38859375 -93.8984375 4.62890625 C-69.43228543 -19.46371678 -26.97526276 -18.96589811 0 0 Z M-89.03125 25.05078125 C-99.47637617 37.6028642 -102.85754004 53.11625138 -101.828125 69.1484375 C-99.47055323 86.02954106 -89.86217253 98.02682974 -79.40234375 110.75 C-76.39429156 114.41379562 -73.4530512 118.12447739 -70.5390625 121.86328125 C-65.97509907 127.71046548 -61.31121603 133.47146299 -56.62231445 139.21875 C-52.68927559 144.04547164 -48.81886872 148.91517129 -45.0390625 153.86328125 C-41.01535567 150.90298266 -38.02902645 147.5701933 -35.0390625 143.61328125 C-34.07161763 142.35706672 -33.10281163 141.10189954 -32.1328125 139.84765625 C-31.62878906 139.19474609 -31.12476563 138.54183594 -30.60546875 137.86914062 C-27.96816609 134.49194633 -25.25194413 131.17983036 -22.5390625 127.86328125 C-17.06531255 121.15287227 -11.67585595 114.38356858 -6.36083984 107.546875 C-5.02630121 105.84702675 -3.67005158 104.16661754 -2.30859375 102.48828125 C9.10433978 88.29079172 14.56886411 73.26307776 12.9609375 54.86328125 C11.45401409 44.39769819 8.04126948 35.58781941 1.9609375 26.86328125 C1.51105469 26.21101563 1.06117188 25.55875 0.59765625 24.88671875 C-7.78873597 14.05120314 -21.20920188 6.65802448 -34.57421875 4.14453125 C-56.14526177 1.6831761 -74.52182715 9.11886596 -89.03125 25.05078125 Z " fill="#E68657" transform="translate(482.0390625,13.13671875)"/>
<path d="M0 0 C1.5768457 -0.02416992 1.5768457 -0.02416992 3.18554688 -0.04882812 C13.82466248 -0.05536722 23.44737401 2.11015087 32.875 7.0625 C33.55643066 7.41393066 34.23786133 7.76536133 34.93994141 8.12744141 C40.34962938 10.98896646 45.15364236 14.17994426 49.6875 18.3125 C50.91533203 19.40304688 50.91533203 19.40304688 52.16796875 20.515625 C65.65687968 33.16785613 74.28599437 50.79256346 74.98828125 69.390625 C75.00753944 71.11448019 75.0111055 72.83857301 75 74.5625 C74.99262817 75.93329712 74.99262817 75.93329712 74.98510742 77.33178711 C74.58356454 100.72629326 63.81360647 117.64505342 49.23828125 135.046875 C46.12528913 138.76681317 43.10252689 142.54620016 40.125 146.375 C36.20636182 151.404883 32.21955727 156.37306729 28.1875 161.3125 C24.05306825 166.37795628 19.96531025 171.47435843 15.9375 176.625 C15.04569209 177.75920829 14.15376753 178.89332489 13.26171875 180.02734375 C11.54082054 182.21657536 9.83863047 184.4188977 8.14453125 186.62890625 C6.95923828 188.14291016 6.95923828 188.14291016 5.75 189.6875 C5.06035156 190.58210937 4.37070313 191.47671875 3.66015625 192.3984375 C1.6875 194.3125 1.6875 194.3125 -2.3125 194.3125 C-4.14824389 192.35110419 -5.67888395 190.4716361 -7.25 188.3125 C-8.22629217 187.01964443 -9.20422298 185.72802502 -10.18359375 184.4375 C-10.94905518 183.42042969 -10.94905518 183.42042969 -11.72998047 182.3828125 C-14.34511104 178.9615988 -17.08120768 175.64114845 -19.8125 172.3125 C-24.32335717 166.78840636 -28.76525582 161.21730197 -33.15283203 155.5949707 C-36.07443194 151.86111338 -39.04496588 148.17179238 -42.04833984 144.50341797 C-44.81789999 141.11840001 -47.56751481 137.71745988 -50.3125 134.3125 C-50.88355469 133.60657715 -51.45460938 132.9006543 -52.04296875 132.17333984 C-69.49661488 110.4690445 -76.4254528 90.33108634 -74.3125 62.3125 C-72.06366012 44.07067894 -61.5028459 27.84702274 -47.6796875 16.15234375 C-33.30199573 4.97760311 -18.04976678 -0.05472943 0 0 Z M-42.3125 35.3125 C-53.81571183 49.9164112 -58.79695535 64.58980691 -57.3125 83.3125 C-54.31384787 100.367334 -45.91871084 111.37917217 -35.05371094 124.22851562 C-32.55035804 127.22467664 -30.14411561 130.29133292 -27.75 133.375 C-23.22868145 139.17842094 -18.61855236 144.90468877 -13.95922852 150.59790039 C-11.54158359 153.55425769 -9.13827799 156.51445914 -6.81640625 159.546875 C-6.11386719 160.45953125 -5.41132812 161.3721875 -4.6875 162.3125 C-4.09710938 163.09625 -3.50671875 163.88 -2.8984375 164.6875 C-2.37507813 165.22375 -1.85171875 165.76 -1.3125 166.3125 C1.62639139 166.65043424 1.62639139 166.65043424 3.046875 165.06591797 C3.50578125 164.48471191 3.9646875 163.90350586 4.4375 163.3046875 C4.95763672 162.655 5.47777344 162.0053125 6.01367188 161.3359375 C6.8422168 160.27246094 6.8422168 160.27246094 7.6875 159.1875 C8.26564453 158.46046875 8.84378906 157.7334375 9.43945312 156.984375 C11.19841976 154.76780672 12.94446665 152.54161021 14.6875 150.3125 C15.63515493 149.10656511 16.5830521 147.90082051 17.53125 146.6953125 C18.86272293 145.00090935 20.1929095 143.30557326 21.51928711 141.60717773 C24.4953102 137.8023615 27.52057342 134.04143609 30.57592773 130.30004883 C32.77169822 127.61113462 34.95723337 124.91400089 37.14160156 122.21582031 C38.13684546 120.99046949 39.1359046 119.76820256 40.13964844 118.54980469 C52.51357531 103.50373835 58.7351431 87.6285712 57.4765625 68.02734375 C55.34884978 52.79211778 47.45507287 39.1683733 35.6875 29.3125 C11.53926787 12.4321824 -21.47640575 12.3802192 -42.3125 35.3125 Z " fill="#E68657" transform="translate(74.3125,-0.3125)"/>
<path d="M0 0 C9.96631548 6.89384828 17.25246871 16.40638072 19.5234375 28.375 C21.37521731 42.06902601 17.61607336 53.71630228 9.38671875 64.64453125 C3.58353194 71.23906172 -6.45249033 76.59391972 -15.16015625 77.71484375 C-28.15855779 78.54013909 -38.62944035 76.64641798 -49.16015625 68.71484375 C-58.36599365 60.4911578 -63.3164892 50.62793155 -64.36328125 38.328125 C-64.62357964 25.55181248 -60.11846778 14.86901252 -51.53515625 5.46484375 C-37.93757041 -7.47648795 -15.97654503 -9.50503312 0 0 Z M-42.59765625 22.49609375 C-46.71395989 28.34124492 -47.06692632 34.75349434 -46.16015625 41.71484375 C-43.98220763 48.49176422 -40.3497242 54.06119587 -34.16015625 57.71484375 C-26.97947103 60.95389247 -20.4958543 61.52604401 -13.03125 58.9921875 C-6.48354897 56.12213259 -2.79706597 51.55215392 0.71484375 45.46484375 C2.95698041 37.99105488 2.80381425 30.80602523 -0.76953125 23.78515625 C-4.93904494 17.57773419 -10.85066893 13.32006449 -18.16015625 11.71484375 C-28.50020668 10.5474187 -36.14559716 14.48305262 -42.59765625 22.49609375 Z " fill="#E68657" transform="translate(278.16015625,38.28515625)"/>
<path d="M0 0 C9.62645772 6.19281675 17.32462145 14.699533 20.54638672 25.89941406 C23.27913229 38.55417342 20.89684974 50.94803018 14.1875 61.8125 C7.74071109 70.83157376 -2.04977851 76.99245939 -13 79 C-24.95089943 79.98330185 -36.79174341 78.58936503 -46.23046875 70.62109375 C-46.81441406 70.08613281 -47.39835937 69.55117187 -48 69 C-48.61488281 68.47535156 -49.22976563 67.95070313 -49.86328125 67.41015625 C-57.25049077 60.68732103 -61.39621334 51.36784301 -62.3359375 41.45703125 C-62.47583352 28.40473241 -59.74050763 17.94728383 -51 8 C-37.803675 -4.56907737 -16.44649239 -9.13694022 0 0 Z M-39 22 C-43.13230617 27.35321481 -45.36376954 32.14521779 -45 39 C-43.87305725 46.54816863 -40.75513601 52.00606435 -35 57 C-29.8740037 60.60176929 -24.26939509 62.27721815 -18 62 C-10.86731692 60.55929249 -4.7021786 57.50084036 -0.25 51.625 C3.66812807 45.67851624 4.75269936 40.02519404 4 33 C2.51155953 26.24573231 -1.16807913 20.73708634 -6.8046875 16.7109375 C-17.85443105 10.1190304 -30.72864903 11.89057103 -39 22 Z " fill="#E68657" transform="translate(458,37)"/>
<path d="M0 0 C9.01907376 6.44678891 15.17995939 16.23727851 17.1875 27.1875 C18.17080185 39.13839943 16.77686503 50.97924341 8.80859375 60.41796875 C8.27363281 61.00191406 7.73867187 61.58585937 7.1875 62.1875 C6.66285156 62.80238281 6.13820313 63.41726562 5.59765625 64.05078125 C-1.37198472 71.70918673 -10.77580547 75.62697899 -21 76.44140625 C-33.72278994 76.8738695 -44.16622791 73.62798808 -53.8125 65.1875 C-62.32640166 56.54056863 -66.27159593 46.65277308 -66.375 34.625 C-66.1619991 21.66744503 -62.15725951 12.7920977 -53.15625 3.47265625 C-38.31483953 -10.28365109 -16.63514107 -10.27302586 0 0 Z M-43.8125 19.1875 C-48.27677504 25.43748505 -49.68388516 31.62339267 -48.8125 39.1875 C-46.32854564 47.51684696 -41.38176369 52.78977093 -33.9765625 57.171875 C-27.77383238 60.08290358 -21.68075662 59.57160406 -15.30859375 57.39453125 C-9.70767314 54.68610485 -4.51887917 50.38789284 -1.8125 44.6875 C0.44858232 36.7737119 0.79125132 30.43018846 -2.96875 22.859375 C-7.08064708 15.96052545 -12.29160381 12.6944654 -19.8125 10.1875 C-29.53340435 9.19048417 -37.18793763 11.95764766 -43.8125 19.1875 Z " fill="#E68657" transform="translate(98.8125,39.8125)"/>
<path d="M0 0 C5.94 0 11.88 0 18 0 C18 5.61 18 11.22 18 17 C12.06 17 6.12 17 0 17 C0 11.39 0 5.78 0 0 Z " fill="#E68657" transform="translate(445,297)"/>
<path d="M0 0 C5.94 0 11.88 0 18 0 C18 5.61 18 11.22 18 17 C12.06 17 6.12 17 0 17 C0 11.39 0 5.78 0 0 Z " fill="#E68657" transform="translate(379,297)"/>
<path d="M0 0 C5.94 0 11.88 0 18 0 C18 5.61 18 11.22 18 17 C12.06 17 6.12 17 0 17 C0 11.39 0 5.78 0 0 Z " fill="#E68657" transform="translate(346,297)"/>
<path d="M0 0 C5.94 0 11.88 0 18 0 C18 5.61 18 11.22 18 17 C12.06 17 6.12 17 0 17 C0 11.39 0 5.78 0 0 Z " fill="#E68657" transform="translate(280,297)"/>
<path d="M0 0 C5.94 0 11.88 0 18 0 C18 5.61 18 11.22 18 17 C12.06 17 6.12 17 0 17 C0 11.39 0 5.78 0 0 Z " fill="#E68657" transform="translate(247,297)"/>
<path d="M0 0 C5.94 0 11.88 0 18 0 C18 5.61 18 11.22 18 17 C12.06 17 6.12 17 0 17 C0 11.39 0 5.78 0 0 Z " fill="#E68657" transform="translate(214,297)"/>
<path d="M0 0 C5.94 0 11.88 0 18 0 C18 5.61 18 11.22 18 17 C12.06 17 6.12 17 0 17 C0 11.39 0 5.78 0 0 Z " fill="#E68657" transform="translate(148,297)"/>
<path d="M0 0 C5.94 0 11.88 0 18 0 C18 5.61 18 11.22 18 17 C12.06 17 6.12 17 0 17 C0 11.39 0 5.78 0 0 Z " fill="#E68657" transform="translate(115,297)"/>
<path d="M0 0 C5.94 0 11.88 0 18 0 C18 5.61 18 11.22 18 17 C12.06 17 6.12 17 0 17 C0 11.39 0 5.78 0 0 Z " fill="#E68657" transform="translate(49,297)"/>
<path d="M0 0 C5.94 0 11.88 0 18 0 C18 5.61 18 11.22 18 17 C12.06 17 6.12 17 0 17 C0 11.39 0 5.78 0 0 Z " fill="#E68657" transform="translate(445,264)"/>
<path d="M0 0 C5.94 0 11.88 0 18 0 C18 5.61 18 11.22 18 17 C12.06 17 6.12 17 0 17 C0 11.39 0 5.78 0 0 Z " fill="#E68657" transform="translate(280,264)"/>
<path d="M0 0 C5.94 0 11.88 0 18 0 C18 5.61 18 11.22 18 17 C12.06 17 6.12 17 0 17 C0 11.39 0 5.78 0 0 Z " fill="#E68657" transform="translate(247,264)"/>
<path d="M0 0 C5.94 0 11.88 0 18 0 C18 5.61 18 11.22 18 17 C12.06 17 6.12 17 0 17 C0 11.39 0 5.78 0 0 Z " fill="#E68657" transform="translate(214,264)"/>
<path d="M0 0 C5.94 0 11.88 0 18 0 C18 5.61 18 11.22 18 17 C12.06 17 6.12 17 0 17 C0 11.39 0 5.78 0 0 Z " fill="#E68657" transform="translate(49,264)"/>
</svg>
